<?xml version="1.0" encoding="utf-8"?>
<!DOCTYPE svg PUBLIC "-//W3C//DTD SVG 1.1//EN" "http://www.w3.org/Graphics/SVG/1.1/DTD/svg11.dtd">
<svg version="1.1" id="Ebene_3" xmlns="http://www.w3.org/2000/svg" x="0px" y="0px"
     width="1200px" height="800px" viewBox="0 0 1200 800" enable-background="new 0 0 1200 800" xml:space="preserve">
<g>
	<path d="M538.58,373.302c0-3,1.6-5,4.8-5h21c3,0,4.49,2.2,4.49,5v17.729c0,3-1.69,4.6-4.49,4.6h-21c-2.8,0-4.8-1.8-4.8-4.6V373.302
		z M539.59,406.802h28V513h-28V406.802z"/>
    <path d="M587.998,397.442c0-23.89,16.454-31.22,31.799-30.84c0,0,51.54,1.44,64.409,3.2v23.149h-57.809
		c-10.399,0-10.399,5.8-10.399,11.201v22.839l59.108,2.11v23.02l-59.108,1.89V513h-28V397.442z"/>
    <path d="M699.715,403.201c0-28.999,17.199-37.469,39.6-37.799c21.05-0.44,45.039,2.37,56.599,5.79v22.009
		c-12.8-1.13-41.639-2-48.899-2c-12.239-0.27-19.3,0.58-19.3,14.201v7.149c0,11.6,4.44,14.1,15.78,14.1h23.119
		c28.69,0,34.61,22.62,34.61,38.8v9.75c0,33.238-20.71,39.398-40.51,39.398c-24.979,0-41.35-1.529-56.489-5.99v-22.009
		c8,0.8,32.39,2.2,50.989,2.2c8.42,0,18.01-1.391,18.01-12.61v-7.88c0-8.32-2.52-13.66-13.21-13.66h-22.499
		c-35.3,0-37.8-26.069-37.8-38.799V403.201z"/>
    <path d="M818.035,366.602h64.049c22.85,0,39.85,10.69,39.85,45.65c0,36.239-15.18,40.539-23.311,43.1L926.343,513h-31.509
		l-24.2-55.398l-24.6-2.801V513h-27.999V366.602z M879.334,432.801c9.75,0,14.399-2.859,14.399-20.549
		c0-16.63-5.6-20.75-14.399-20.75h-33.189v41.299H879.334z"/>
</g>
    <g>
</g>
    <path d="M279,574.196c18-17.196,72,0,108-45s54-108,36-162c-18-54-36-117,18-171s99-81,144-45s36,99,9,135s-81,63-108,99
	c-27,36-36,81-9,126s99,35.196,126,54s-36,18-135,18S261,591.393,279,574.196z"/>
</svg>
